<svg width="100%" viewBox="0 0 1500 220" xmlns="http://www.w3.org/2000/svg" preserveAspectRatio="none">
<defs>
  <linearGradient id="galaxyBg" x1="0%" y1="0%" x2="100%" y2="100%">
    <stop offset="0%" stop-color="#0a0014"/>
    <stop offset="30%" stop-color="#1a0b2e"/>
    <stop offset="60%" stop-color="#4c1d95"/>
    <stop offset="85%" stop-color="#3b0764"/>
    <stop offset="100%" stop-color="#1e1b4b"/>
  </linearGradient>
  <linearGradient id="waveA" x1="0%" y1="0%" x2="100%" y2="0%">
    <stop offset="0%" stop-color="#7C3AED" stop-opacity="0.55"/>
    <stop offset="100%" stop-color="#22D3EE" stop-opacity="0.55"/>
  </linearGradient>
  <linearGradient id="waveB" x1="0%" y1="0%" x2="100%" y2="0%">
    <stop offset="0%" stop-color="#a855f7" stop-opacity="0.45"/>
    <stop offset="100%" stop-color="#3B82F6" stop-opacity="0.45"/>
  </linearGradient>
  <linearGradient id="waveC" x1="0%" y1="0%" x2="100%" y2="0%">
    <stop offset="0%" stop-color="#ffffff" stop-opacity="0.15"/>
    <stop offset="100%" stop-color="#c4b5fd" stop-opacity="0.25"/>
  </linearGradient>
</defs>
  <g transform="translate(0,270) scale(1,-1)">
<rect x="0" y="0" width="1500" height="220" fill="url(#galaxyBg)"/>
<g><circle cx="959.1" cy="3.6" r="0.99" fill="#ffffff"><animate attributeName="opacity" values="0.15;1;0.15" dur="2.34s" begin="2.21s" repeatCount="indefinite"/></circle><circle cx="1015.0" cy="127.6" r="0.72" fill="#ffffff"><animate attributeName="opacity" values="0.15;1;0.15" dur="2.81s" begin="0.09s" repeatCount="indefinite"/></circle><circle cx="328.0" cy="72.3" r="0.64" fill="#ffffff"><animate attributeName="opacity" values="0.15;1;0.15" dur="2.28s" begin="1.95s" repeatCount="indefinite"/></circle><circle cx="817.4" cy="31.5" r="1.42" fill="#ffffff"><animate attributeName="opacity" values="0.15;1;0.15" dur="3.74s" begin="0.02s" repeatCount="indefinite"/></circle><circle cx="1208.7" cy="99.8" r="1.08" fill="#ffffff"><animate attributeName="opacity" values="0.15;1;0.15" dur="2.17s" begin="2.87s" repeatCount="indefinite"/></circle><circle cx="504.9" cy="13.3" r="0.74" fill="#ffffff"><animate attributeName="opacity" values="0.15;1;0.15" dur="3.83s" begin="1.81s" repeatCount="indefinite"/></circle><circle cx="1210.7" cy="104.4" r="1.35" fill="#ffffff"><animate attributeName="opacity" values="0.15;1;0.15" dur="4.14s" begin="1.14s" repeatCount="indefinite"/></circle><circle cx="828.1" cy="118.6" r="1.47" fill="#ffffff"><animate attributeName="opacity" values="0.15;1;0.15" dur="3.87s" begin="1.73s" repeatCount="indefinite"/></circle><circle cx="1056.9" cy="6.6" r="0.92" fill="#ffffff"><animate attributeName="opacity" values="0.15;1;0.15" dur="2.49s" begin="0.24s" repeatCount="indefinite"/></circle><circle cx="349.2" cy="14.4" r="0.99" fill="#ffffff"><animate attributeName="opacity" values="0.15;1;0.15" dur="3.33s" begin="1.09s" repeatCount="indefinite"/></circle><circle cx="555.3" cy="30.0" r="0.97" fill="#ffffff"><animate attributeName="opacity" values="0.15;1;0.15" dur="4.05s" begin="1.94s" repeatCount="indefinite"/></circle><circle cx="913.7" cy="24.5" r="1.62" fill="#ffffff"><animate attributeName="opacity" values="0.15;1;0.15" dur="2.19s" begin="1.14s" repeatCount="indefinite"/></circle><circle cx="1484.3" cy="91.5" r="1.38" fill="#ffffff"><animate attributeName="opacity" values="0.15;1;0.15" dur="3.44s" begin="2.53s" repeatCount="indefinite"/></circle><circle cx="1164.0" cy="32.8" r="0.64" fill="#ffffff"><animate attributeName="opacity" values="0.15;1;0.15" dur="2.56s" begin="0.8s" repeatCount="indefinite"/></circle><circle cx="316.5" cy="134.8" r="1.83" fill="#ffffff"><animate attributeName="opacity" values="0.15;1;0.15" dur="2.56s" begin="1.97s" repeatCount="indefinite"/></circle><circle cx="593.4" cy="130.8" r="1.24" fill="#ffffff"><animate attributeName="opacity" values="0.15;1;0.15" dur="2.44s" begin="0.74s" repeatCount="indefinite"/></circle><circle cx="842.1" cy="37.6" r="1.42" fill="#ffffff"><animate attributeName="opacity" values="0.15;1;0.15" dur="3.95s" begin="1.2s" repeatCount="indefinite"/></circle><circle cx="329.0" cy="142.6" r="1.31" fill="#ffffff"><animate attributeName="opacity" values="0.15;1;0.15" dur="2.02s" begin="0.14s" repeatCount="indefinite"/></circle><circle cx="164.5" cy="89.7" r="1.71" fill="#ffffff"><animate attributeName="opacity" values="0.15;1;0.15" dur="2.81s" begin="0.19s" repeatCount="indefinite"/></circle><circle cx="572.4" cy="142.4" r="1.34" fill="#ffffff"><animate attributeName="opacity" values="0.15;1;0.15" dur="4.13s" begin="2.58s" repeatCount="indefinite"/></circle><circle cx="17.2" cy="103.1" r="1.55" fill="#ffffff"><animate attributeName="opacity" values="0.15;1;0.15" dur="3.09s" begin="0.8s" repeatCount="indefinite"/></circle><circle cx="961.4" cy="16.0" r="1.21" fill="#ffffff"><animate attributeName="opacity" values="0.15;1;0.15" dur="2.89s" begin="2.86s" repeatCount="indefinite"/></circle><circle cx="1313.8" cy="37.7" r="1.3" fill="#ffffff"><animate attributeName="opacity" values="0.15;1;0.15" dur="2.23s" begin="2.74s" repeatCount="indefinite"/></circle><circle cx="1305.8" cy="42.7" r="1.49" fill="#ffffff"><animate attributeName="opacity" values="0.15;1;0.15" dur="3.26s" begin="0.46s" repeatCount="indefinite"/></circle><circle cx="1143.8" cy="77.1" r="1.69" fill="#ffffff"><animate attributeName="opacity" values="0.15;1;0.15" dur="3.07s" begin="0.0s" repeatCount="indefinite"/></circle><circle cx="486.2" cy="2.8" r="1.9" fill="#ffffff"><animate attributeName="opacity" values="0.15;1;0.15" dur="3.91s" begin="2.49s" repeatCount="indefinite"/></circle><circle cx="461.3" cy="8.3" r="1.83" fill="#ffffff"><animate attributeName="opacity" values="0.15;1;0.15" dur="4.07s" begin="0.26s" repeatCount="indefinite"/></circle><circle cx="729.0" cy="9.9" r="1.66" fill="#ffffff"><animate attributeName="opacity" values="0.15;1;0.15" dur="3.64s" begin="0.39s" repeatCount="indefinite"/></circle><circle cx="712.9" cy="78.6" r="0.97" fill="#ffffff"><animate attributeName="opacity" values="0.15;1;0.15" dur="3.89s" begin="1.27s" repeatCount="indefinite"/></circle><circle cx="317.7" cy="77.1" r="1.62" fill="#ffffff"><animate attributeName="opacity" values="0.15;1;0.15" dur="2.28s" begin="0.94s" repeatCount="indefinite"/></circle><circle cx="1492.7" cy="92.9" r="1.21" fill="#ffffff"><animate attributeName="opacity" values="0.15;1;0.15" dur="3.04s" begin="0.36s" repeatCount="indefinite"/></circle><circle cx="337.0" cy="48.3" r="1.42" fill="#ffffff"><animate attributeName="opacity" values="0.15;1;0.15" dur="2.35s" begin="0.66s" repeatCount="indefinite"/></circle><circle cx="106.5" cy="90.2" r="0.92" fill="#ffffff"><animate attributeName="opacity" values="0.15;1;0.15" dur="3.97s" begin="2.58s" repeatCount="indefinite"/></circle><circle cx="106.3" cy="34.0" r="1.54" fill="#ffffff"><animate attributeName="opacity" values="0.15;1;0.15" dur="2.31s" begin="0.4s" repeatCount="indefinite"/></circle><circle cx="1403.3" cy="81.7" r="1.26" fill="#ffffff"><animate attributeName="opacity" values="0.15;1;0.15" dur="3.68s" begin="2.42s" repeatCount="indefinite"/></circle><circle cx="285.6" cy="13.9" r="1.2" fill="#ffffff"><animate attributeName="opacity" values="0.15;1;0.15" dur="2.82s" begin="1.4s" repeatCount="indefinite"/></circle><circle cx="1093.6" cy="96.3" r="1.98" fill="#ffffff"><animate attributeName="opacity" values="0.15;1;0.15" dur="2.04s" begin="1.21s" repeatCount="indefinite"/></circle><circle cx="509.0" cy="123.2" r="0.95" fill="#ffffff"><animate attributeName="opacity" values="0.15;1;0.15" dur="2.26s" begin="1.35s" repeatCount="indefinite"/></circle><circle cx="632.8" cy="39.8" r="0.95" fill="#ffffff"><animate attributeName="opacity" values="0.15;1;0.15" dur="4.02s" begin="1.33s" repeatCount="indefinite"/></circle><circle cx="1292.0" cy="78.7" r="0.67" fill="#ffffff"><animate attributeName="opacity" values="0.15;1;0.15" dur="4.2s" begin="2.51s" repeatCount="indefinite"/></circle><circle cx="1453.5" cy="132.5" r="1.79" fill="#ffffff"><animate attributeName="opacity" values="0.15;1;0.15" dur="2.2s" begin="1.46s" repeatCount="indefinite"/></circle><circle cx="320.6" cy="57.3" r="0.68" fill="#ffffff"><animate attributeName="opacity" values="0.15;1;0.15" dur="2.71s" begin="2.96s" repeatCount="indefinite"/></circle><circle cx="397.8" cy="112.1" r="1.24" fill="#ffffff"><animate attributeName="opacity" values="0.15;1;0.15" dur="2.82s" begin="2.87s" repeatCount="indefinite"/></circle><circle cx="1493.1" cy="79.5" r="1.61" fill="#ffffff"><animate attributeName="opacity" values="0.15;1;0.15" dur="2.17s" begin="0.89s" repeatCount="indefinite"/></circle><circle cx="1453.1" cy="82.8" r="1.36" fill="#ffffff"><animate attributeName="opacity" values="0.15;1;0.15" dur="3.6s" begin="0.17s" repeatCount="indefinite"/></circle><circle cx="876.3" cy="71.9" r="1.79" fill="#ffffff"><animate attributeName="opacity" values="0.15;1;0.15" dur="2.18s" begin="2.88s" repeatCount="indefinite"/></circle><circle cx="120.2" cy="26.6" r="1.43" fill="#ffffff"><animate attributeName="opacity" values="0.15;1;0.15" dur="3.42s" begin="0.71s" repeatCount="indefinite"/></circle><circle cx="179.8" cy="127.3" r="0.94" fill="#ffffff"><animate attributeName="opacity" values="0.15;1;0.15" dur="3.23s" begin="1.86s" repeatCount="indefinite"/></circle><circle cx="628.8" cy="83.5" r="1.33" fill="#ffffff"><animate attributeName="opacity" values="0.15;1;0.15" dur="4.04s" begin="0.61s" repeatCount="indefinite"/></circle><circle cx="1074.3" cy="34.1" r="1.15" fill="#ffffff"><animate attributeName="opacity" values="0.15;1;0.15" dur="3.41s" begin="0.9s" repeatCount="indefinite"/></circle><circle cx="474.3" cy="107.5" r="0.7" fill="#ffffff"><animate attributeName="opacity" values="0.15;1;0.15" dur="2.9s" begin="3.0s" repeatCount="indefinite"/></circle><circle cx="1494.1" cy="10.5" r="0.9" fill="#ffffff"><animate attributeName="opacity" values="0.15;1;0.15" dur="2.44s" begin="2.8s" repeatCount="indefinite"/></circle><circle cx="1321.3" cy="125.7" r="1.12" fill="#ffffff"><animate attributeName="opacity" values="0.15;1;0.15" dur="2.18s" begin="2.5s" repeatCount="indefinite"/></circle><circle cx="1055.3" cy="87.5" r="1.98" fill="#ffffff"><animate attributeName="opacity" values="0.15;1;0.15" dur="3.37s" begin="0.02s" repeatCount="indefinite"/></circle><circle cx="1225.7" cy="42.8" r="1.53" fill="#ffffff"><animate attributeName="opacity" values="0.15;1;0.15" dur="4.05s" begin="0.4s" repeatCount="indefinite"/></circle><circle cx="173.1" cy="15.3" r="1.37" fill="#ffffff"><animate attributeName="opacity" values="0.15;1;0.15" dur="2.45s" begin="1.81s" repeatCount="indefinite"/></circle><circle cx="1076.4" cy="29.1" r="1.49" fill="#ffffff"><animate attributeName="opacity" values="0.15;1;0.15" dur="2.43s" begin="1.47s" repeatCount="indefinite"/></circle><circle cx="1358.0" cy="121.0" r="0.73" fill="#ffffff"><animate attributeName="opacity" values="0.15;1;0.15" dur="2.82s" begin="0.83s" repeatCount="indefinite"/></circle><circle cx="5.3" cy="110.3" r="1.49" fill="#ffffff"><animate attributeName="opacity" values="0.15;1;0.15" dur="2.43s" begin="2.22s" repeatCount="indefinite"/></circle><circle cx="827.5" cy="61.2" r="0.61" fill="#ffffff"><animate attributeName="opacity" values="0.15;1;0.15" dur="1.98s" begin="2.65s" repeatCount="indefinite"/></circle><circle cx="1355.9" cy="78.0" r="1.77" fill="#ffffff"><animate attributeName="opacity" values="0.15;1;0.15" dur="3.2s" begin="0.44s" repeatCount="indefinite"/></circle><circle cx="191.2" cy="44.1" r="1.86" fill="#ffffff"><animate attributeName="opacity" values="0.15;1;0.15" dur="3.71s" begin="2.58s" repeatCount="indefinite"/></circle><circle cx="1348.4" cy="30.0" r="0.95" fill="#ffffff"><animate attributeName="opacity" values="0.15;1;0.15" dur="2.05s" begin="2.34s" repeatCount="indefinite"/></circle><circle cx="1326.2" cy="58.1" r="1.47" fill="#ffffff"><animate attributeName="opacity" values="0.15;1;0.15" dur="2.17s" begin="2.79s" repeatCount="indefinite"/></circle><circle cx="1296.9" cy="139.6" r="1.74" fill="#ffffff"><animate attributeName="opacity" values="0.15;1;0.15" dur="3.92s" begin="0.07s" repeatCount="indefinite"/></circle><circle cx="1104.8" cy="47.5" r="1.9" fill="#ffffff"><animate attributeName="opacity" values="0.15;1;0.15" dur="3.73s" begin="2.59s" repeatCount="indefinite"/></circle><circle cx="1216.1" cy="38.2" r="1.7" fill="#ffffff"><animate attributeName="opacity" values="0.15;1;0.15" dur="2.06s" begin="2.62s" repeatCount="indefinite"/></circle><circle cx="1287.9" cy="31.8" r="1.74" fill="#ffffff"><animate attributeName="opacity" values="0.15;1;0.15" dur="2.9s" begin="0.92s" repeatCount="indefinite"/></circle><circle cx="1193.0" cy="32.5" r="0.63" fill="#ffffff"><animate attributeName="opacity" values="0.15;1;0.15" dur="2.26s" begin="0.98s" repeatCount="indefinite"/></circle><circle cx="1296.5" cy="138.3" r="0.99" fill="#ffffff"><animate attributeName="opacity" values="0.15;1;0.15" dur="3.34s" begin="1.2s" repeatCount="indefinite"/></circle></g>
<g>
  <path d="M0,270 L0,198.70969190405353 C62.5,198.70969190405353 62.5,185.29392401935345 125,185.29392401935345 C187.5,185.29392401935345 187.5,173.13914539318714 250,173.13914539318714 C312.5,173.13914539318714 312.5,165.50221914261488 375,165.50221914261488 C437.5,165.50221914261488 437.5,164.4294534891336 500,164.4294534891336 C562.5,164.4294534891336 562.5,170.20829512326142 625,170.20829512326142 C687.5,170.20829512326142 687.5,181.29030809594647 750,181.29030809594647 C812.5,181.29030809594647 812.5,194.70607598064655 875,194.70607598064655 C937.5,194.70607598064655 937.5,206.86085460681286 1000,206.86085460681286 C1062.5,206.86085460681286 1062.5,214.49778085738512 1125,214.49778085738512 C1187.5,214.49778085738512 1187.5,215.5705465108664 1250,215.5705465108664 C1312.5,215.5705465108664 1312.5,209.79170487673858 1375,209.79170487673858 C1437.5,209.79170487673858 1437.5,198.70969190405353 1500,198.70969190405353 C1562.5,198.70969190405353 1562.5,185.29392401935345 1625,185.29392401935345 C1687.5,185.29392401935345 1687.5,173.13914539318714 1750,173.13914539318714 C1812.5,173.13914539318714 1812.5,165.5022191426149 1875,165.5022191426149 C1937.5,165.5022191426149 1937.5,164.4294534891336 2000,164.4294534891336 C2062.5,164.4294534891336 2062.5,170.20829512326145 2125,170.20829512326145 C2187.5,170.20829512326145 2187.5,181.29030809594647 2250,181.29030809594647 C2312.5,181.29030809594647 2312.5,194.70607598064655 2375,194.70607598064655 C2437.5,194.70607598064655 2437.5,206.86085460681284 2500,206.86085460681284 C2562.5,206.86085460681284 2562.5,214.4977808573851 2625,214.4977808573851 C2687.5,214.4977808573851 2687.5,215.5705465108664 2750,215.5705465108664 C2812.5,215.5705465108664 2812.5,209.79170487673855 2875,209.79170487673855 C2937.5,209.79170487673855 2937.5,198.70969190405353 3000,198.70969190405353 L3000,270 Z" fill="url(#waveC)">
    <animateTransform attributeName="transform" type="translate" from="0 0" to="-1500 0" dur="14s" repeatCount="indefinite"/>
  </path>
  <path d="M0,270 L0,197.7089945997692 C62.5,197.7089945997692 62.5,196.76816143545287 125,196.76816143545287 C187.5,196.76816143545287 187.5,190.79841457108998 250,190.79841457108998 C312.5,190.79841457108998 312.5,181.39934285800481 375,181.39934285800481 C437.5,181.39934285800481 437.5,171.08941997132078 500,171.08941997132078 C562.5,171.08941997132078 562.5,162.63118142255198 625,162.63118142255198 C687.5,162.63118142255198 687.5,158.2910054002308 750,158.2910054002308 C812.5,158.2910054002308 812.5,159.23183856454713 875,159.23183856454713 C937.5,159.23183856454713 937.5,165.20158542891002 1000,165.20158542891002 C1062.5,165.20158542891002 1062.5,174.60065714199519 1125,174.60065714199519 C1187.5,174.60065714199519 1187.5,184.91058002867922 1250,184.91058002867922 C1312.5,184.91058002867922 1312.5,193.36881857744802 1375,193.36881857744802 C1437.5,193.36881857744802 1437.5,197.7089945997692 1500,197.7089945997692 C1562.5,197.7089945997692 1562.5,196.76816143545287 1625,196.76816143545287 C1687.5,196.76816143545287 1687.5,190.79841457108995 1750,190.79841457108995 C1812.5,190.79841457108995 1812.5,181.39934285800481 1875,181.39934285800481 C1937.5,181.39934285800481 1937.5,171.08941997132078 2000,171.08941997132078 C2062.5,171.08941997132078 2062.5,162.63118142255195 2125,162.63118142255195 C2187.5,162.63118142255195 2187.5,158.2910054002308 2250,158.2910054002308 C2312.5,158.2910054002308 2312.5,159.23183856454713 2375,159.23183856454713 C2437.5,159.23183856454713 2437.5,165.20158542891005 2500,165.20158542891005 C2562.5,165.20158542891005 2562.5,174.60065714199519 2625,174.60065714199519 C2687.5,174.60065714199519 2687.5,184.91058002867922 2750,184.91058002867922 C2812.5,184.91058002867922 2812.5,193.36881857744805 2875,193.36881857744805 C2937.5,193.36881857744805 2937.5,197.7089945997692 3000,197.7089945997692 L3000,270 Z" fill="url(#waveB)">
    <animateTransform attributeName="transform" type="translate" from="0 0" to="-1500 0" dur="9s" repeatCount="indefinite"/>
  </path>
  <path d="M0,270 L0,165.0 C62.5,165.0 62.5,172.0 125,172.0 C187.5,172.0 187.5,177.12435565298213 250,177.12435565298213 C312.5,177.12435565298213 312.5,179.0 375,179.0 C437.5,179.0 437.5,177.12435565298213 500,177.12435565298213 C562.5,177.12435565298213 562.5,172.0 625,172.0 C687.5,172.0 687.5,165.0 750,165.0 C812.5,165.0 812.5,158.0 875,158.0 C937.5,158.0 937.5,152.87564434701787 1000,152.87564434701787 C1062.5,152.87564434701787 1062.5,151.0 1125,151.0 C1187.5,151.0 1187.5,152.87564434701787 1250,152.87564434701787 C1312.5,152.87564434701787 1312.5,158.0 1375,158.0 C1437.5,158.0 1437.5,165.0 1500,165.0 C1562.5,165.0 1562.5,172.0 1625,172.0 C1687.5,172.0 1687.5,177.12435565298213 1750,177.12435565298213 C1812.5,177.12435565298213 1812.5,179.0 1875,179.0 C1937.5,179.0 1937.5,177.12435565298216 2000,177.12435565298216 C2062.5,177.12435565298216 2062.5,172.0 2125,172.0 C2187.5,172.0 2187.5,165.0 2250,165.0 C2312.5,165.0 2312.5,158.0 2375,158.0 C2437.5,158.0 2437.5,152.87564434701787 2500,152.87564434701787 C2562.5,152.87564434701787 2562.5,151.0 2625,151.0 C2687.5,151.0 2687.5,152.87564434701784 2750,152.87564434701784 C2812.5,152.87564434701784 2812.5,158.0 2875,158.0 C2937.5,158.0 2937.5,165.0 3000,165.0 L3000,270 Z" fill="url(#waveA)">
    <animateTransform attributeName="transform" type="translate" from="0 0" to="-1500 0" dur="6s" repeatCount="indefinite"/>
  </path>
</g>
  </g>
</svg>
